<svg xmlns="http://www.w3.org/2000/svg" version="1.1" viewBox="-5.0 -10.0 110.0 135.0">
 <g>
  <path d="m22.441 33.957-10.27-3.1367c-0.62109-0.20312-0.93359 0.76172-0.29297 0.95703 10.324 3.1484 10.297 3.1602 10.414 3.1602 0.57422-0.003906 0.69531-0.81641 0.14844-0.98047z"/>
  <path d="m21.68 26.477c-0.33594-0.57031-1.1953-0.058593-0.85938 0.51172l2.6602 4.4688c0.33594 0.5625 1.1953 0.058594 0.85938-0.51172z"/>
  <path d="m27.73 30.156 0.76172-3.8984c0.125-0.64844-0.85156-0.84766-0.98047-0.19141l-0.76172 3.8984c-0.12891 0.64844 0.85156 0.83984 0.98047 0.19141z"/>
  <path d="m74.75 79.535c1.7734-6.8359 4.2852-35.953 3.7344-43.27-0.085937-1.1406-1.0469-2.0352-2.1914-2.0352h-3.0312c1.0547-7.0547-2.7578-13.617-9.5078-16.039-1.4375-0.51172-4.793-0.63672-5.3945-1.8281-0.15625-0.3125-0.11328-0.71484 0.13672-1.2305 0.28906-0.60156 0.62109-1.2812 1.1406-1.6914 0.41016-0.32812 0.097656-0.97266-0.37891-0.88672-1.1836 0.16797-2.3242 0.5625-3.3555 1.1602 0.34375-2.2188 1.2461-4.3789 2.5898-6.1719 0.30078-0.40234-0.12109-0.95312-0.58594-0.76172-4.0781 1.6445-7.9883 3.7539-10.562 7.2773 0.28906-0.43359-0.19922-0.97266-0.66016-0.71875-1.2305 0.69141-1.9844 1.7344-2.7109 2.7461-1.4805 2.0508-2.1328 2.5312-4.9531 4.6094-4.4414 3.3086-6.8477 8.5-6.3945 13.539h-3.543c-1.875 0-3.4414 1.4531-3.5664 3.3047-0.58203 8.6992 1.9883 33.809 4.2305 41.332 0.40234 1.3984 1.7188 2.375 3.1992 2.375h5.8945c-0.058594 1.8828-2.668 1.5547-5.1992 2.9766-3.9727 2.207-2.8398 6.6211 0.16797 6.7539 0.15234 0.007813 0.3125 0.011719 0.39453 0.046876 0.33594 0.14453 0.85547 1.3086 2.9414 1.3477 1.5469 0 2.9414-0.67969 4.0703-0.40625 1.0117 0.22656 2.9102 1.9023 6.2461 1.0625 2.7734-0.69922 5.543-3.4258 4.9648-6.0938-0.36328-1.5469-1.8086-2.4844-1.3984-4.9883 2.1211-0.14453 4.2539-0.19531 6.3789-0.14844 0.35156 1.4961-1.6602 2.3477-1.9492 6.2344-0.26953 3.332 1.6133 5.0508 4.9102 4.9609 2.4531-0.066407 2.5664-0.59375 5.4062-0.03125 0.73828 0.14844 1.4258 0.28125 2.1836 0.28125 1.9219 0 2.5664-0.92578 3.3672-1.2891 1.3477-0.58594 3.7383 0.45312 5.2109-1.168 0.95703-1.0352 1.0039-2.875-0.48438-4.4062-2.1602-2.2305-5.3945-2.0078-6.6094-5.125h3.0898c1.0547-0.007812 1.9648-0.71094 2.2188-1.7188zm1.543-44.305c0.62109 0 1.1484 0.48828 1.1953 1.1094 0.54688 7.2617-1.9453 36.16-3.707 42.945-0.14453 0.5625-0.65625 0.95703-1.25 0.95703l-3.0664 0.003906c7.4766-7.3984 5.6367-20.68-0.94141-28.734 4.9219-2.5977 7.6758-5.8203 7.9297-9.3672 0.16406-2.293-1.1914-4.9727-3.6797-5.6719 0.12891-0.40625 0.22266-0.82422 0.3125-1.2383zm-15.445 27.891c1.8945-0.32812 3.8672-0.019532 5.5625 0.87109 0.58594 0.30469 1.0508-0.57422 0.46484-0.88672-0.33203-0.17578-0.6875-0.30469-1.0352-0.4375-0.011719-0.13672-1.9414-5.2891 1.4492-10.438 1.7109 1.6172 2.4492 3.8359 2.9922 6.6562 0.26562 1.3906 0.51562 3.0273 0.34766 4.6289-1.0664 10.066-16.914 4.9336-12.176 0.65234 0.5625-0.51562 1.3672-0.86719 2.3945-1.0469zm-21.234-41.625c2.6797-1.9727 3.5898-2.6289 5.168-4.8281 0.41797-0.57812 0.82031-1.1406 1.3008-1.6211-0.007812 0.375 0.046875 0.75 0.16406 1.1016 0.13281 0.39453 0.69531 0.49219 0.91797 0.074218 1.9766-3.7656 5.6758-6.1484 9.6016-7.8828-1.1211 1.9297-1.8125 4.1289-1.9805 6.3398-0.03125 0.43359 0.46094 0.69141 0.79688 0.4375 0.74219-0.55469 1.5703-0.98047 2.4492-1.2617-0.55078 0.95312-1.0547 1.9883-0.5625 2.957 0.89844 1.7812 4.4609 1.7891 5.9492 2.3203 7.3984 2.6523 10.738 10.57 8.2305 17.539-0.10938 0.30078 0.085937 0.62109 0.39844 0.66406 2.293 0.33203 3.5547 2.7148 3.4102 4.7344-0.30078 4.2344-4.5781 7.1992-8.1133 8.9414-8.3828 4.1328-17.266 3.6484-23.234 2.5156-4.7656-0.90234-10.562-3.8125-12.117-8.4062-0.59766-1.7656-0.32422-3.8008 0.87109-5.2617 0.10547-0.12891 0.33594-0.29297 0.55859-0.44922 1.0781-0.76953 1.3477-1.1211 0.67188-2.9258-0.33984-0.90625-0.42578-1.9414-0.39844-1.7539 0-0.023438-0.011718-0.046875-0.015624-0.070313-0.65234-4.8516 1.6172-9.9492 5.9336-13.164zm-4.4219 38.285c0.46484-2.418 1.3281-5.125 3.0938-6.8438 1.8633 3.0508 2.4219 7.2188 1.3477 10.594-0.003906 0.011719 0 0.019531-0.003906 0.03125-0.35156 0.13281-0.70312 0.26562-1.0352 0.4375-0.58984 0.3125-0.11328 1.1953 0.46484 0.88672 3.1016-1.6328 6.6211-1.043 7.9609 0.17188 3.9336 3.5625-6.25 7.5781-10.43 3.3711-2.2031-2.2148-1.9844-5.5938-1.3984-8.6484zm-4.4844 18.809c-2.2227-7.457-4.7695-32.355-4.1953-40.984 0.089843-1.332 1.2148-2.375 2.5664-2.375h3.6719c0.023438 0.12891 0.035156 0.25781 0.0625 0.38672 0.25781 1.2891 0.77734 2.1367 0.62109 2.4648-0.058594 0.12109-0.38672 0.35547-0.60156 0.50781-2.0352 1.4492-2.6055 4.457-1.7969 6.8477 0.98438 2.9102 3.5156 5.2109 6.4961 6.8125-3.7617 3.8164-5.543 8.9844-5.4648 14.078 0.066406 4.3125 2.1445 10.68 6.3633 13.914h-5.4844c-1.0352 0.003906-1.957-0.67578-2.2383-1.6523zm20.422 8.6367c0.51562 2.3555-3.625 6.0625-7.8242 4.1797-1.7617-0.79688-1.9453-1.0742-4.3516-0.625-1.3047 0.27344-2.5391 0.53906-3.4609-0.40234-1.2188-1.2617-1.9219-0.22656-2.7109-1.2891-0.94922-1.2812-0.015625-2.8555 1.5117-3.7031 2.3789-1.3359 5.7617-1.0742 5.8828-4.0547 3.0664 1.4961 6.0781 1.0078 9.4961 0.70703-0.3125 2.8203 1.1914 4.0625 1.457 5.1875zm-8.6484-6.125c-6.4844-1.4297-11.895-11.934-8.1758-21.938-0.74609 3.5703-0.98438 7.3945 1.5742 9.9727 2.582 2.5977 7.2188 2.6406 10.547 0.91016 3.7891-1.9727 2.8906-5.6602-0.64844-6.7734 0.91406-2.3867 1.2656-5.5195 0.9375-8.3359 4.0781 0.52734 7.9336 0.53125 11.992-0.15234-0.32422 2.6094 0.003907 5.1562 0.97656 7.5938-3.4102 1.0781-4.5195 4.7461-0.64062 6.7695 4.7695 2.4805 11.844 1.332 12.574-5.5312 0.21484-2.0117-0.18359-4.2969-0.64844-6.2656 2.8672 6.2812 3.6641 14.863-0.89062 20.695-2.582 3.3125-3.6914 3.4648-7.7031 3.0352-10.09-1.1211-15.801 0.92188-19.895 0.019531zm32.617 6.1953c1.2383 1.2773 1.2695 3.1328-1.4492 3.1328l-0.40234-0.007813c-1.9141-0.050781-2.3789 0.18359-3.3164 0.81641-1.2617 0.85156-2.0039 0.78516-3.8906 0.41016-3.0508-0.60547-3.4297-0.054688-5.707 0.007812-2.668 0.085938-3.7305-1.1484-3.5391-3.5234 0.25391-3.4375 2.1719-4.2305 1.9883-6.2969 5.1953 0.22266 7.0664 1.0391 9.3164-0.43359 1.2891 3.9766 5.0938 3.9258 7 5.8945z"/>
  <path d="m43.047 39.922c-0.89062 0.16797-1.2734 1.1953-0.69141 1.9531 0.30859 0.40625 0.74609 0.59766 1.1992 0.81641 3.5859 1.7969 4.9609 7.9414 9.8086 7.9414 2.8164 0 4.375-2.5 6.0117-4.4648 2.8867-3.4688 4.7812-3.4727 4.793-4.8047 0.007812-0.69922-0.53906-1.1953-1.625-1.4648-2.5781-0.64453-5.0117-2.0586-6.9258-4.0625-0.39453-0.41797-0.84375-0.89063-1.4805-1.0781-0.66797-0.19531-1.457-0.03125-2.1602 0.45703-0.95312 0.66016-1.4453 1.6484-3.1562 2.793-2.7695 1.8555-5.0352 1.7773-5.7734 1.9141zm10.805-4.2031c0.37891 0.11328 0.69922 0.44922 1.1211 0.89453 4.8438 5.0703 9.8281 3.8242 7.6836 5.2617-5.1484 3.4648-5.582 7.2539-8.832 7.7266-3.4414 0.5-5.9375-4.2188-6.4219-4.6641-2.5898-3.4141-3.7695-3.0312-4.2539-3.668-0.43359-0.57031 0.83203-0.35156 2.1797-0.66797 5.75-1.3594 6.668-5.4219 8.5234-4.8828z"/>
  <path d="m46.156 42.41c3.4023 2.1367 3.5781 3.8516 5.4961 5.1523 1.4414 0.97266 3.1484 0.47656 4.4805-0.67969 1.4883-1.2852 2.3789-3.2539 4.5273-4.6562 0.62891 0.13672 0.85156-0.79297 0.23828-0.96484-5.875-1.6289-11.801-1.0547-14.898 0.19922-0.48438 0.1875-0.38672 0.91406 0.15625 0.94922z"/>
  <path d="m61.188 36.293c1.1875 0 2.1484-1.6914 2.1484-3.7734 0-2.0781-0.96094-3.7734-2.1484-3.7734s-2.1602 1.6914-2.1602 3.7734c0 2.0781 0.97266 3.7734 2.1602 3.7734zm0-6.8945c0.39844 0 0.73438 0.58594 0.73438 1.293 0 0.71875-0.33203 1.3086-0.73438 1.3086-0.41406 0-0.74609-0.58594-0.74609-1.3086 0-0.70703 0.33203-1.293 0.74609-1.293z"/>
  <path d="m42.441 32.797c0 2.0938 0.97266 3.7734 2.1602 3.7734s2.1484-1.6797 2.1484-3.7734c0-2.0781-0.96094-3.7617-2.1484-3.7617-1.1875 0.003906-2.1602 1.6836-2.1602 3.7617zm2.8945-1.8125c0 0.71875-0.33203 1.293-0.73438 1.293-0.41406 0-0.74609-0.57422-0.74609-1.293s0.33203-1.293 0.74609-1.293c0.39844 0 0.73438 0.57422 0.73438 1.293z"/>
  <path d="m41.406 28.57c0.51953-1.2578 1.6484-2.2852 2.9492-2.6836 0.64453-0.19531 0.32422-1.1602-0.29297-0.95703-1.6055 0.48828-2.9453 1.707-3.582 3.2578-0.25 0.61328 0.67578 0.99609 0.92578 0.38281z"/>
  <path d="m60.719 25.547c1.3711 0.12891 2.6055 1.1367 3.0078 2.4492 0.19141 0.63281 1.1484 0.34375 0.95703-0.29297-0.51562-1.6914-2.1094-2.9883-3.8711-3.1523-0.66797-0.050781-0.74219 0.9375-0.09375 0.99609z"/>
  <path d="m64.254 77.484c3.7695-0.84375 6.4805-4.1602 6.5508-8.0273 0.011718-0.66406-0.98828-0.6875-1-0.019531-0.0625 3.3984-2.4453 6.3242-5.7695 7.0664-0.64062 0.14844-0.4375 1.1211 0.21875 0.98047z"/>
  <path d="m83.914 62.199-3.3516 18.543c-0.11719 0.65234 0.86328 0.83594 0.98438 0.17578l3.3516-18.543c0.11719-0.64844-0.86719-0.82422-0.98438-0.17578z"/>
  <path d="m87.508 73.305-3.457 8.1719c-0.25781 0.61328 0.66406 0.99609 0.92188 0.39063l3.457-8.1719c0.25391-0.61328-0.66406-0.99609-0.92188-0.39062z"/>
 </g>
 </svg>